<svg id="Layer_1" data-name="Layer 1" xmlns="http://www.w3.org/2000/svg" xmlns:xlink="http://www.w3.org/1999/xlink" viewBox="0 0 326.3 53.78"><defs><style>.cls-1{fill:url(#linear-gradient);}.cls-2{fill:#f47421;}</style><linearGradient id="linear-gradient" y1="26.89" x2="326.3" y2="26.89" gradientUnits="userSpaceOnUse"><stop offset="0" stop-color="#69cce2"/><stop offset="0.35" stop-color="#9aca3c"/><stop offset="0.71" stop-color="#fed402"/><stop offset="1" stop-color="#fbb019"/></linearGradient></defs><path class="cls-1" d="M39.17,33.26H46Q45,43,39.31,48.38t-15.55,5.4a24.74,24.74,0,0,1-10.44-2.05A20.52,20.52,0,0,1,5.9,46.08a24.3,24.3,0,0,1-4.42-8.5A36,36,0,0,1,0,27.07,34.52,34.52,0,0,1,1.58,16.52a25.58,25.58,0,0,1,4.65-8.6,21.66,21.66,0,0,1,7.63-5.8A24.7,24.7,0,0,1,24.34,0,26.45,26.45,0,0,1,32,1.08a20.66,20.66,0,0,1,6.41,3.17,17.81,17.81,0,0,1,4.68,5.22A19.21,19.21,0,0,1,45.5,16.7H38.66a12.69,12.69,0,0,0-5.07-8.2,15.88,15.88,0,0,0-9.33-2.74,16.7,16.7,0,0,0-7.88,1.73A15.55,15.55,0,0,0,11,12.13a20,20,0,0,0-3.13,6.66,29.91,29.91,0,0,0-1,7.78,33.31,33.31,0,0,0,1,8.31A19.71,19.71,0,0,0,11,41.72a15.43,15.43,0,0,0,5.44,4.65,16.9,16.9,0,0,0,7.92,1.73,15.34,15.34,0,0,0,6-1.12,13.54,13.54,0,0,0,4.53-3.1,14.14,14.14,0,0,0,3-4.71A19.83,19.83,0,0,0,39.17,33.26Zm47.3-6.87a24.7,24.7,0,0,1,1.15,7.67,24.4,24.4,0,0,1-1.15,7.63A17.37,17.37,0,0,1,83,47.84,15.92,15.92,0,0,1,77.36,52a19.26,19.26,0,0,1-7.81,1.47A19.38,19.38,0,0,1,61.77,52a15.86,15.86,0,0,1-5.68-4.11,17.37,17.37,0,0,1-3.46-6.15,24.4,24.4,0,0,1-1.15-7.63,24.7,24.7,0,0,1,1.15-7.67,17.29,17.29,0,0,1,3.46-6.19,16.05,16.05,0,0,1,5.68-4.14,18.88,18.88,0,0,1,7.78-1.52,18.76,18.76,0,0,1,7.81,1.52A16.12,16.12,0,0,1,83,20.2,17.29,17.29,0,0,1,86.47,26.39Zm-5.33,7.67a18.59,18.59,0,0,0-.9-6,13,13,0,0,0-2.48-4.42,10.55,10.55,0,0,0-3.71-2.74,11.24,11.24,0,0,0-9,0,10.55,10.55,0,0,0-3.71,2.74A13,13,0,0,0,58.86,28a18.59,18.59,0,0,0-.9,6,18.52,18.52,0,0,0,.9,6,12.71,12.71,0,0,0,2.48,4.39,10.68,10.68,0,0,0,3.71,2.7,11.24,11.24,0,0,0,9,0,10.68,10.68,0,0,0,3.71-2.7,12.71,12.71,0,0,0,2.48-4.39A18.52,18.52,0,0,0,81.14,34.06Zm41.76-15.7a10.07,10.07,0,0,0-4-2.81,16.18,16.18,0,0,0-6.12-1q-8.28,0-12.09,6.77h-.15v-5.9H94.82V52.63h6.12v-21a15,15,0,0,1,.69-4.65,10.44,10.44,0,0,1,2.05-3.7,9,9,0,0,1,3.42-2.45,12.41,12.41,0,0,1,4.86-.87,7.5,7.5,0,0,1,5.54,2,7.41,7.41,0,0,1,2,5.47v25.2h6.12V28.15a23.53,23.53,0,0,0-.61-5.51A10.46,10.46,0,0,0,122.9,18.36Zm25.78,28.08h-.15l-10.44-31h-6.84l13.83,37.22h6.55l13.61-37.22h-6.41Zm53.89-17.71a29.6,29.6,0,0,1,.61,7.13H175.32a14.74,14.74,0,0,0,.57,4.64A10.7,10.7,0,0,0,178,44.39a10.32,10.32,0,0,0,3.67,2.7,12.72,12.72,0,0,0,5.26,1,10.58,10.58,0,0,0,6.37-1.8,8.71,8.71,0,0,0,3.28-5.48h6.05q-1.23,6.27-5.4,9.44a16.93,16.93,0,0,1-10.52,3.16A19.16,19.16,0,0,1,179,52a15.17,15.17,0,0,1-5.5-4,17,17,0,0,1-3.35-6.19,29.38,29.38,0,0,1-1.26-7.85,22.46,22.46,0,0,1,1.29-7.77A18.53,18.53,0,0,1,173.77,20a16.54,16.54,0,0,1,5.54-4,17,17,0,0,1,7-1.44,15.27,15.27,0,0,1,8.25,2.06,16.17,16.17,0,0,1,5.25,5.22A20.5,20.5,0,0,1,202.57,28.73Zm-5.87,1.73a12.48,12.48,0,0,0-1-4.11,10.33,10.33,0,0,0-5.54-5.58,10.56,10.56,0,0,0-4.22-.83,10.68,10.68,0,0,0-4.28.83A10,10,0,0,0,178.41,23a11,11,0,0,0-2.16,3.35,12.8,12.8,0,0,0-.93,4.07ZM232,45.72a11.55,11.55,0,0,1-12.07,1.22,9.57,9.57,0,0,1-3.38-3.06,13.61,13.61,0,0,1-1.91-4.35,20.58,20.58,0,0,1-.61-5,25,25,0,0,1,.58-5.44,13.66,13.66,0,0,1,1.9-4.64A9.8,9.8,0,0,1,220,21.17a11.38,11.38,0,0,1,5.54-1.23,9.29,9.29,0,0,1,6.2,1.95,9.34,9.34,0,0,1,3,5.47h6.33a14.67,14.67,0,0,0-1.72-5.72,13,13,0,0,0-3.49-4A14.35,14.35,0,0,0,231,15.3a22.68,22.68,0,0,0-5.94-.76,18,18,0,0,0-7.7,1.55,15.31,15.31,0,0,0-5.51,4.25,17.94,17.94,0,0,0-3.28,6.34,27.25,27.25,0,0,0-1.08,7.81,24.94,24.94,0,0,0,1.12,7.67,16.72,16.72,0,0,0,3.31,6,14.68,14.68,0,0,0,5.47,3.89,19.4,19.4,0,0,0,7.52,1.36q7.14,0,11.27-3.74T241.34,39h-6.26A10.78,10.78,0,0,1,232,45.72ZM256.68,4.25h-6.12V15.41h-6.34v5.4h6.34V44.5a14,14,0,0,0,.5,4.17,5.09,5.09,0,0,0,1.55,2.45,6,6,0,0,0,2.73,1.19,22.61,22.61,0,0,0,4.07.32h4.68v-5.4h-2.81a18.67,18.67,0,0,1-2.34-.11,3,3,0,0,1-1.4-.46,1.77,1.77,0,0,1-.68-1,6.68,6.68,0,0,1-.18-1.73V20.81h7.41v-5.4h-7.41Zm14.54,4.46h6.12V1.22h-6.12Zm0,43.92h6.12V15.41h-6.12Zm37-26.42,17-25h-7.63l-13.4,20.09L291.38,1.22h-8.21l16.92,25L282.23,52.63h7.64l14.25-21.24L318,52.63h8.35Z"/><path class="cls-2" d="M308.23,26.21,289.87,52.63h-7.64l17.86-26.42-16.92-25h8.21l16.85,25m0,0"/></svg>